<svg xmlns="http://www.w3.org/2000/svg" viewBox="0 0 1184.97 245.58"><defs><style>.cls-1{fill:#efefef;}.cls-2{fill:#30ad23;}.cls-3{fill:#d2011a;}.cls-4{fill:#3983cc;fill-rule:evenodd;}</style></defs><g id="Capa_2" data-name="Capa 2"><g id="Capa_1-2" data-name="Capa 1"><path class="cls-1" d="M88.11,241.35q-39.39,0-63.75-23.49T0,156.72v-4.43Q0,126,9.73,105.94A71.18,71.18,0,0,1,38.12,74.86q18.68-11,44.3-11,36.06,0,56.94,22.38t20.88,62.4v20.73h-106Q57.11,183.77,66.75,192t25,8.22q25.31,0,39.54-17.71l24.37,28.79q-10,13.75-28.24,21.9A95.46,95.46,0,0,1,88.11,241.35ZM82.1,105q-23.41,0-27.84,31H108v-4.11q.31-12.82-6.48-19.86T82.1,105Z"/><path class="cls-1" d="M237.91,238.57H184.45V8.25h53.46Z"/><path class="cls-1" d="M420.42,51.12H369.07V238.57H313.54V51.12H261.48V8.25H454Z"/><path class="cls-1" d="M1001.64,8.25V158.14q0,25.49-10.85,44.12a70.33,70.33,0,0,1-31.14,28.39q-20.29,9.75-48,9.75-41.83,0-65.9-21.7t-24.53-59.45V8.25h55.52v152.1q.94,37.59,34.91,37.59,17.15,0,26-9.44t8.8-30.67V8.25Z"/><path class="cls-1" d="M1168.84,140.81h-87.32v55.05h103.14v42.71H1026V8.25h159V51.12H1081.52V99.68h87.32Z"/><path class="cls-2" d="M797.86,97.68l0-.11a.36.36,0,0,1,0,.11Z"/><path class="cls-3" d="M599.16,71.45a70.61,70.61,0,0,1,13.61,17.38,1.09,1.09,0,0,0,.08-.15l-.06.1a70.26,70.26,0,0,0-41.37-33.25v0a69.78,69.78,0,0,1,27.75,15.9Z"/><path class="cls-3" d="M571.41,55.55l-.06.09.06-.09Z"/><path class="cls-3" d="M778.47,187.62a123.17,123.17,0,0,0,14.32-33h0a122.8,122.8,0,0,0-180-138.16,123.67,123.67,0,0,1,41.35,39.1l-.33.11a70.17,70.17,0,0,1,82.09,100.53c-.21.4-.44.8-.67,1.2s-.62,1.07-.93,1.6l-.21.35a70.54,70.54,0,0,1-32.27,28l-.7.29L700,188l-1.84.7-.43.15c-.58.21-1.16.41-1.75.6l-.43.14A70.16,70.16,0,0,1,604,122.79c0-.7,0-1.39,0-2.08a27.61,27.61,0,0,0-.15-4v0a53,53,0,0,0-31.08-42.24,52.63,52.63,0,0,0-10.08-3.31,122.88,122.88,0,0,0,64.26,165l1.59.65.57.22a123,123,0,0,0,91.28-.49l.34-.14,1.7-.71,1-.45,1-.43c.57-.25,1.13-.51,1.7-.78l.25-.11A124,124,0,0,0,739,227.09l.08-.08q3.95-2.46,7.68-5.22l38.82,12.94L772.69,196q3-4,5.68-8.31Z"/><path class="cls-3" d="M562.73,71.18h0a.36.36,0,0,0,0-.09A.36.36,0,0,1,562.73,71.18Z"/><path class="cls-4" d="M648.93,188.26l-.78-.31Z"/><path class="cls-4" d="M646.63,187.32l-.77-.33Z"/><path class="cls-4" d="M587.35,209.61A122.83,122.83,0,0,1,571.42,190,70.18,70.18,0,0,1,490.29,88.29L477,48.37l39.92,13.3a70.39,70.39,0,0,1,56.37-5.55l.33.11c1.23.41,2.46.85,3.67,1.33l.33.13c1.21.49,2.4,1,3.58,1.56l.36.17c1.16.55,2.32,1.14,3.46,1.76l.39.21,1.66,1h0l1.64,1,.42.26c.52.34,1.05.68,1.56,1l.07,0,1.57,1.1.42.31c.5.36,1,.73,1.48,1.11l.12.09c.49.38,1,.78,1.47,1.18l.42.34L597.68,70l.1.09c.48.42,1,.86,1.42,1.3l.39.35c.48.46,1,.92,1.43,1.39s1.07,1.09,1.59,1.65l.44.48c.38.41.75.82,1.12,1.24l.45.51c.41.48.81,1,1.21,1.45l.23.28c.48.59.94,1.19,1.4,1.79.09.12.17.24.26.35l1.07,1.48.35.5c.34.49.67,1,1,1.48.08.13.16.26.25.38.81,1.27,1.59,2.56,2.32,3.87,0,.05.06.1.08.15l.06-.1-.06.11a70.21,70.21,0,0,1,8.66,37.9c0,.72.12,1.45.2,2.17a52.83,52.83,0,0,0,2,9.64,50.33,50.33,0,0,0,2.29,6,52.9,52.9,0,0,0,36.83,29.89h0a120.29,120.29,0,0,0,11.39-51.62,122.14,122.14,0,0,0-20.07-67.24l-.33.09.32-.11-.86-1.3-.06-.1c-.5-.74-1-1.47-1.53-2.2l-.27-.38c-.51-.71-1-1.42-1.55-2.12l-.2-.27c-.51-.68-1-1.35-1.55-2l-.15-.2c-.55-.69-1.1-1.37-1.66-2-.1-.12-.2-.25-.31-.37-.55-.68-1.12-1.35-1.69-2l-.18-.2c-.55-.63-1.1-1.26-1.67-1.88l-.24-.27c-.58-.64-1.17-1.28-1.77-1.9l-.34-.36c-.61-.64-1.22-1.27-1.85-1.89l-.12-.12c-.6-.6-1.2-1.19-1.81-1.77l-.32-.31c-.62-.59-1.25-1.17-1.88-1.75l-.38-.34c-.65-.59-1.31-1.18-2-1.76l0,0-2-1.69-.4-.33c-.65-.54-1.32-1.07-2-1.6L627,26l-2-1.52-.15-.11c-.69-.52-1.39-1-2.1-1.53l-.46-.33c-.69-.49-1.38-1-2.08-1.44l-.41-.28-2-1.3a2.9,2.9,0,0,0-.29-.19L615.32,18l-.51-.31a122.79,122.79,0,1,0-63.4,227.94,122.16,122.16,0,0,0,61.37-16.44A122.18,122.18,0,0,1,587.35,209.61Z"/><path class="cls-4" d="M651.19,189.09l-.46-.17Z"/><path class="cls-2" d="M792.94,80.49h0l0,.09Z"/></g></g></svg>